<svg width="775" height="667" viewBox="0 0 775 667" fill="none" xmlns="http://www.w3.org/2000/svg">
<g filter="url(#filter0_df_46_9)">
<path d="M28.7656 19.1983C-157.807 161.272 771 19.1983 771 19.1983V630.984C771 630.984 -121.304 480.212 28.7656 630.984C178.835 781.756 215.338 -122.875 28.7656 19.1983Z" fill="#005596"/>
<path d="M770.5 19.7803V630.393L770.437 630.382C770.008 630.31 769.369 630.203 768.527 630.063C766.843 629.782 764.346 629.368 761.097 628.834C754.597 627.767 745.084 626.22 733.03 624.306C708.923 620.478 674.651 615.177 633.994 609.287C552.681 597.507 445.823 583.371 343.653 573.947C262.323 566.445 183.935 561.926 123.762 563.964C142.384 502.735 153.405 415.65 155.506 328.365C157.705 237 150.133 145.34 131.233 82.8198C187.51 83.1787 257.337 79.1485 329.96 72.9741C434.411 64.0935 544.69 50.7731 628.854 39.6731C670.937 34.1231 706.492 29.128 731.526 25.5205C744.043 23.7167 753.93 22.2598 760.688 21.2538C764.067 20.7508 766.664 20.3605 768.416 20.096C769.292 19.9637 769.957 19.8629 770.403 19.7951L770.5 19.7803ZM128.104 76.2106C128.707 78.0492 129.298 79.9161 129.88 81.8105C105.806 81.6259 84.2564 80.6278 66.0838 78.6385C50.8902 76.9754 38.0773 74.6213 28.132 71.4788C18.1696 68.3309 11.1617 64.4151 7.48665 59.6823C5.65763 57.3268 4.65448 54.77 4.51649 51.9907C4.37825 49.2063 5.10677 46.1628 6.80052 42.8383C10.1949 36.1757 17.4266 28.4613 29.0685 19.5961C40.6831 10.7517 51.3907 6.0102 61.2212 4.80874C71.0408 3.60861 80.0235 5.93562 88.2136 11.2977C104.628 22.0444 117.877 44.9961 128.104 76.2106ZM122.396 565.012C120.924 569.792 119.406 574.41 117.841 578.854C107.04 609.535 94.0768 631.81 79.2263 641.742C71.8238 646.692 63.9624 648.57 55.6439 646.909C47.3093 645.244 38.4581 640.013 29.12 630.631C19.7659 621.233 14.5337 613.068 12.857 606.022C11.1906 599.019 13.025 593.082 17.9304 588.045C22.8633 582.979 30.9155 578.814 41.6845 575.474C52.4438 572.137 65.8651 569.639 81.4854 567.874C93.8356 566.479 107.55 565.543 122.396 565.012Z" stroke="black"/>
</g>
<defs>
<filter id="filter0_df_46_9" x="0" y="0" width="775" height="667" filterUnits="userSpaceOnUse" color-interpolation-filters="sRGB">
<feFlood flood-opacity="0" result="BackgroundImageFix"/>
<feColorMatrix in="SourceAlpha" type="matrix" values="0 0 0 0 0 0 0 0 0 0 0 0 0 0 0 0 0 0 127 0" result="hardAlpha"/>
<feOffset dy="15"/>
<feGaussianBlur stdDeviation="2"/>
<feComposite in2="hardAlpha" operator="out"/>
<feColorMatrix type="matrix" values="0 0 0 0 0 0 0 0 0 0 0 0 0 0 0 0 0 0 0.25 0"/>
<feBlend mode="normal" in2="BackgroundImageFix" result="effect1_dropShadow_46_9"/>
<feBlend mode="normal" in="SourceGraphic" in2="effect1_dropShadow_46_9" result="shape"/>
<feGaussianBlur stdDeviation="2" result="effect2_foregroundBlur_46_9"/>
</filter>
</defs>
</svg>
